<?xml version="1.0" encoding="UTF-8"?>
<!DOCTYPE svg PUBLIC "-//W3C//DTD SVG 1.1//EN" "http://www.w3.org/Graphics/SVG/1.1/DTD/svg11.dtd">
<svg version="1.2" width="210mm" height="210mm" viewBox="0 0 21000 21000" preserveAspectRatio="xMidYMid" fill-rule="evenodd" stroke-width="28.222" stroke-linejoin="round" xmlns="http://www.w3.org/2000/svg" xmlns:ooo="http://xml.openoffice.org/svg/export" xmlns:xlink="http://www.w3.org/1999/xlink" xmlns:presentation="http://sun.com/xmlns/staroffice/presentation" xmlns:smil="http://www.w3.org/2001/SMIL20/" xmlns:anim="urn:oasis:names:tc:opendocument:xmlns:animation:1.0" xmlns:svg="urn:oasis:names:tc:opendocument:xmlns:svg-compatible:1.0" xml:space="preserve">
 <defs class="ClipPathGroup">
  <clipPath id="presentation_clip_path" clipPathUnits="userSpaceOnUse">
   <rect x="0" y="0" width="21000" height="21000"/>
  </clipPath>
  <clipPath id="presentation_clip_path_shrink" clipPathUnits="userSpaceOnUse">
   <rect x="21" y="21" width="20958" height="20958"/>
  </clipPath>
 </defs>
 <defs class="TextShapeIndex">
  <g ooo:slide="id1" ooo:id-list="id3 id4"/>
 </defs>
 <defs class="EmbeddedBulletChars">
  <g id="bullet-char-template-57356" transform="scale(0.00048828125,-0.00048828125)">
   <path d="M 580,1141 L 1163,571 580,0 -4,571 580,1141 Z"/>
  </g>
  <g id="bullet-char-template-57354" transform="scale(0.00048828125,-0.00048828125)">
   <path d="M 8,1128 L 1137,1128 1137,0 8,0 8,1128 Z"/>
  </g>
  <g id="bullet-char-template-10146" transform="scale(0.00048828125,-0.00048828125)">
   <path d="M 174,0 L 602,739 174,1481 1456,739 174,0 Z M 1358,739 L 309,1346 659,739 1358,739 Z"/>
  </g>
  <g id="bullet-char-template-10132" transform="scale(0.00048828125,-0.00048828125)">
   <path d="M 2015,739 L 1276,0 717,0 1260,543 174,543 174,936 1260,936 717,1481 1274,1481 2015,739 Z"/>
  </g>
  <g id="bullet-char-template-10007" transform="scale(0.00048828125,-0.00048828125)">
   <path d="M 0,-2 C -7,14 -16,27 -25,37 L 356,567 C 262,823 215,952 215,954 215,979 228,992 255,992 264,992 276,990 289,987 310,991 331,999 354,1012 L 381,999 492,748 772,1049 836,1024 860,1049 C 881,1039 901,1025 922,1006 886,937 835,863 770,784 769,783 710,716 594,584 L 774,223 C 774,196 753,168 711,139 L 727,119 C 717,90 699,76 672,76 641,76 570,178 457,381 L 164,-76 C 142,-110 111,-127 72,-127 30,-127 9,-110 8,-76 1,-67 -2,-52 -2,-32 -2,-23 -1,-13 0,-2 Z"/>
  </g>
  <g id="bullet-char-template-10004" transform="scale(0.00048828125,-0.00048828125)">
   <path d="M 285,-33 C 182,-33 111,30 74,156 52,228 41,333 41,471 41,549 55,616 82,672 116,743 169,778 240,778 293,778 328,747 346,684 L 369,508 C 377,444 397,411 428,410 L 1163,1116 C 1174,1127 1196,1133 1229,1133 1271,1133 1292,1118 1292,1087 L 1292,965 C 1292,929 1282,901 1262,881 L 442,47 C 390,-6 338,-33 285,-33 Z"/>
  </g>
  <g id="bullet-char-template-9679" transform="scale(0.00048828125,-0.00048828125)">
   <path d="M 813,0 C 632,0 489,54 383,161 276,268 223,411 223,592 223,773 276,916 383,1023 489,1130 632,1184 813,1184 992,1184 1136,1130 1245,1023 1353,916 1407,772 1407,592 1407,412 1353,268 1245,161 1136,54 992,0 813,0 Z"/>
  </g>
  <g id="bullet-char-template-8226" transform="scale(0.00048828125,-0.00048828125)">
   <path d="M 346,457 C 273,457 209,483 155,535 101,586 74,649 74,723 74,796 101,859 155,911 209,963 273,989 346,989 419,989 480,963 531,910 582,859 608,796 608,723 608,648 583,586 532,535 482,483 420,457 346,457 Z"/>
  </g>
  <g id="bullet-char-template-8211" transform="scale(0.00048828125,-0.00048828125)">
   <path d="M -4,459 L 1135,459 1135,606 -4,606 -4,459 Z"/>
  </g>
  <g id="bullet-char-template-61548" transform="scale(0.00048828125,-0.00048828125)">
   <path d="M 173,740 C 173,903 231,1043 346,1159 462,1274 601,1332 765,1332 928,1332 1067,1274 1183,1159 1299,1043 1357,903 1357,740 1357,577 1299,437 1183,322 1067,206 928,148 765,148 601,148 462,206 346,322 231,437 173,577 173,740 Z"/>
  </g>
 </defs>
 <g>
  <g id="id2" class="Master_Slide">
   <g id="bg-id2" class="Background"/>
   <g id="bo-id2" class="BackgroundObjects"/>
  </g>
 </g>
 <g class="SlideGroup">
  <g>
   <g id="container-id1">
    <g id="id1" class="Slide" clip-path="url(#presentation_clip_path)">
     <g class="Page">
      <g class="com.sun.star.drawing.CustomShape">
       <g id="id3">
        <rect class="BoundingBox" stroke="none" fill="none" x="-1" y="-1" width="21003" height="20753"/>
        <path fill="rgb(114,159,207)" stroke="none" d="M 10500,20750 L 0,20750 0,0 21000,0 21000,20750 10500,20750 Z "/>
        <path fill="none" stroke="rgb(52,101,164)" d="M 10500,20750 L 0,20750 0,0 21000,0 21000,20750 10500,20750 Z "/>
       </g>
      </g>
      <g class="com.sun.star.drawing.CustomShape">
       <g id="id4">
        <rect class="BoundingBox" stroke="none" fill="none" x="722" y="3973" width="20027" height="13302"/>
        <path fill="rgb(255,255,255)" stroke="none" d="M 1100,16851 L 1045,16847 993,16837 945,16824 899,16804 857,16781 818,16758 782,16732 749,16705 749,15036 814,15086 847,15109 882,15129 916,15146 953,15159 991,15165 1029,15169 1055,15165 1080,15159 1103,15149 1128,15136 1151,15116 1173,15093 1195,15066 1217,15036 1228,15020 1237,15000 1247,14977 1257,14954 1267,14931 1276,14904 1293,14845 1309,14775 1324,14703 1337,14620 1350,14531 1361,14435 1371,14326 1378,14210 1385,14081 1390,13946 1394,13797 1396,13642 1397,13473 1397,4611 1994,4611 1994,13460 1992,13758 1987,14042 1978,14310 1966,14561 1949,14799 1930,15023 1908,15231 1881,15426 1852,15608 1819,15777 1785,15932 1746,16074 1706,16203 1662,16319 1616,16424 1567,16514 1515,16593 1462,16662 1407,16718 1350,16768 1290,16804 1229,16831 1165,16844 1100,16851 Z M 4618,10437 L 4614,10876 4600,11286 4578,11673 4547,12036 4528,12205 4507,12370 4484,12528 4458,12680 4430,12822 4401,12961 4369,13093 4335,13219 4298,13338 4261,13450 4221,13553 4181,13649 4139,13738 4094,13817 4049,13890 4002,13956 3952,14012 3902,14062 3797,14138 3684,14184 3566,14200 3492,14194 3420,14174 3350,14138 3282,14091 3216,14029 3152,13956 3091,13867 3031,13764 2973,13649 2919,13520 2869,13381 2821,13226 2776,13060 2735,12882 2696,12690 2662,12485 2630,12271 2603,12043 2580,11801 2560,11554 2546,11293 2536,11018 2529,10734 2527,10437 2531,10000 2545,9591 2566,9204 2597,8847 2616,8675 2636,8513 2660,8355 2685,8206 2712,8064 2742,7925 2773,7796 2808,7671 2843,7552 2882,7443 2920,7340 2962,7248 3004,7159 3047,7079 3094,7007 3141,6944 3189,6888 3241,6838 3346,6762 3458,6719 3578,6703 3653,6709 3726,6729 3797,6765 3865,6812 3931,6874 3995,6947 4057,7036 4116,7139 4172,7254 4226,7380 4277,7522 4324,7674 4368,7839 4410,8014 4447,8203 4483,8404 4514,8616 4542,8841 4564,9078 4584,9326 4599,9587 4609,9858 4616,10143 4618,10437 Z M 3128,10437 L 3130,10698 3135,10942 3143,11170 3154,11382 3169,11577 3186,11755 3208,11917 3220,11993 3233,12062 3246,12129 3261,12191 3277,12248 3294,12300 3311,12350 3329,12396 3350,12436 3371,12472 3392,12505 3415,12532 3439,12558 3463,12578 3490,12591 3517,12601 3574,12611 3630,12601 3657,12591 3682,12578 3707,12558 3730,12532 3753,12505 3775,12472 3796,12436 3815,12396 3834,12350 3852,12300 3869,12248 3883,12191 3898,12129 3912,12062 3925,11993 3937,11917 3958,11755 3976,11577 3991,11382 4002,11170 4009,10942 4014,10698 4016,10437 4014,10176 4009,9934 4002,9710 3991,9498 3976,9307 3958,9131 3937,8969 3925,8897 3912,8827 3898,8761 3883,8702 3868,8646 3851,8593 3833,8546 3814,8500 3795,8461 3774,8428 3752,8394 3730,8368 3706,8345 3680,8325 3655,8312 3627,8302 3570,8292 3514,8302 3487,8312 3461,8325 3437,8345 3414,8368 3391,8394 3370,8428 3349,8461 3329,8500 3311,8546 3293,8593 3276,8646 3261,8702 3246,8761 3233,8827 3220,8897 3208,8969 3186,9131 3169,9307 3154,9498 3143,9710 3135,9934 3130,10176 3128,10437 Z M 5399,4000 L 5431,4003 5463,4013 5492,4029 5522,4052 5549,4079 5576,4115 5601,4158 5625,4204 5637,4231 5648,4261 5658,4294 5667,4330 5675,4366 5683,4409 5690,4452 5696,4498 5702,4548 5707,4598 5711,4654 5714,4710 5719,4832 5720,4968 5719,5097 5714,5219 5711,5275 5707,5328 5702,5377 5696,5427 5690,5473 5683,5516 5675,5556 5667,5596 5658,5629 5648,5662 5637,5695 5625,5721 5601,5771 5576,5814 5549,5850 5522,5880 5492,5903 5463,5919 5431,5929 5399,5933 5367,5929 5335,5919 5305,5903 5276,5880 5248,5850 5222,5814 5196,5771 5173,5721 5162,5695 5151,5662 5141,5629 5132,5596 5123,5556 5117,5516 5110,5473 5103,5427 5098,5377 5093,5328 5089,5275 5086,5219 5081,5097 5080,4968 5081,4832 5086,4710 5089,4654 5093,4598 5098,4548 5103,4498 5110,4452 5117,4409 5123,4366 5132,4330 5141,4294 5151,4261 5162,4231 5173,4204 5196,4155 5222,4115 5248,4079 5276,4049 5305,4029 5335,4013 5367,4003 5399,4000 Z M 5692,6835 L 5692,14068 5104,14068 5104,6835 5692,6835 Z M 7533,6703 L 7617,6712 7698,6742 7774,6792 7846,6858 7913,6947 7946,7000 7976,7056 8006,7116 8035,7182 8063,7254 8090,7330 8115,7413 8139,7499 8161,7595 8181,7694 8200,7800 8218,7909 8233,8028 8247,8150 8259,8279 8270,8414 8287,8705 8297,9016 8300,9353 8300,14068 7710,14068 7710,9842 7709,9653 7705,9475 7698,9310 7689,9158 7678,9016 7664,8887 7656,8827 7647,8771 7637,8718 7627,8669 7616,8622 7605,8576 7593,8537 7580,8497 7566,8464 7551,8431 7536,8401 7520,8378 7503,8355 7485,8335 7467,8318 7448,8302 7407,8285 7363,8279 7298,8289 7268,8302 7239,8318 7211,8338 7186,8365 7160,8398 7136,8434 7115,8474 7093,8520 7074,8570 7056,8626 7039,8685 7023,8751 7008,8821 6995,8897 6972,9059 6952,9237 6935,9432 6921,9647 6911,9875 6903,10123 6899,10384 6897,10665 6897,14068 6308,14068 6308,6835 6759,6835 6838,7763 6869,7763 6896,7628 6925,7502 6957,7387 6990,7281 7027,7185 7066,7099 7108,7023 7151,6954 7197,6894 7243,6845 7289,6802 7336,6765 7385,6739 7433,6719 7482,6706 7533,6703 Z M 10879,4611 L 11011,4624 11133,4660 11246,4720 11351,4806 11445,4918 11490,4981 11531,5054 11570,5130 11608,5212 11642,5301 11675,5397 11705,5500 11734,5602 11761,5715 11785,5827 11807,5949 11828,6071 11846,6200 11863,6332 11878,6471 11891,6613 11911,6914 11922,7231 11926,7565 11924,7770 11919,7968 11912,8166 11901,8361 11886,8553 11868,8741 11846,8926 11823,9108 11795,9283 11763,9452 11727,9611 11686,9759 11641,9901 11592,10033 11539,10156 11482,10268 11420,10371 11352,10460 11279,10532 11200,10595 11115,10642 11026,10678 10932,10698 10831,10704 10575,10704 10575,14072 9978,14072 9978,4611 10879,4611 Z M 10847,6253 L 10575,6253 10575,9062 10772,9062 10833,9055 10892,9042 10947,9016 10999,8979 11047,8930 11092,8874 11135,8804 11173,8725 11191,8682 11208,8632 11223,8583 11238,8530 11251,8474 11263,8411 11275,8348 11285,8282 11292,8213 11300,8140 11306,8061 11312,7981 11319,7813 11321,7631 11319,7466 11313,7307 11304,7162 11291,7030 11275,6904 11254,6792 11230,6689 11203,6597 11171,6518 11136,6448 11097,6389 11055,6339 11009,6303 10958,6276 10904,6260 10847,6253 Z M 13617,6703 L 13719,6716 13748,6722 13773,6732 13795,6742 13814,6755 13771,8609 13756,8596 13737,8586 13715,8573 13690,8563 13664,8553 13641,8550 13618,8543 13597,8543 13560,8546 13522,8553 13486,8570 13449,8586 13414,8613 13378,8642 13343,8679 13308,8722 13275,8771 13242,8824 13212,8887 13183,8956 13157,9032 13131,9115 13107,9204 13086,9300 13066,9402 13049,9518 13034,9640 13022,9769 13013,9911 13006,10060 13002,10219 13001,10387 13001,14068 12412,14068 12412,6835 12859,6835 12946,8054 12973,8054 12998,7919 13025,7786 13054,7658 13086,7539 13119,7420 13156,7307 13193,7202 13233,7099 13276,7007 13320,6927 13366,6858 13413,6802 13461,6759 13511,6729 13564,6709 13617,6703 Z M 16086,10437 L 16082,10876 16069,11286 16047,11673 16015,12036 15997,12205 15976,12370 15952,12528 15927,12680 15899,12822 15869,12961 15838,13093 15803,13219 15767,13338 15729,13450 15690,13553 15650,13649 15607,13738 15563,13817 15518,13890 15470,13956 15421,14012 15371,14062 15265,14138 15153,14184 15034,14200 14961,14194 14889,14174 14819,14138 14751,14091 14685,14029 14620,13956 14559,13867 14499,13764 14442,13649 14388,13520 14338,13381 14289,13226 14245,13060 14203,12882 14165,12690 14131,12485 14099,12271 14071,12043 14049,11801 14029,11554 14014,11293 14004,11018 13997,10734 13995,10437 13999,10000 14013,9591 14035,9204 14065,8847 14084,8675 14105,8513 14129,8355 14153,8206 14181,8064 14210,7925 14242,7796 14276,7671 14312,7552 14350,7443 14389,7340 14430,7248 14473,7159 14516,7079 14562,7007 14610,6944 14658,6888 14709,6838 14815,6762 14927,6719 15046,6703 15121,6709 15194,6729 15265,6765 15333,6812 15399,6874 15463,6947 15525,7036 15585,7139 15641,7254 15695,7380 15745,7522 15793,7674 15837,7839 15878,8014 15916,8203 15951,8404 15983,8616 16010,8841 16033,9078 16053,9326 16068,9587 16077,9858 16084,10143 16086,10437 Z M 14597,10437 L 14599,10698 14604,10942 14612,11170 14622,11382 14637,11577 14655,11755 14677,11917 14688,11993 14701,12062 14715,12129 14730,12191 14746,12248 14762,12300 14779,12350 14798,12396 14819,12436 14839,12472 14861,12505 14884,12532 14907,12558 14932,12578 14959,12591 14985,12601 15042,12611 15099,12601 15125,12591 15151,12578 15175,12558 15199,12532 15222,12505 15243,12472 15264,12436 15284,12396 15303,12350 15320,12300 15337,12248 15352,12191 15367,12129 15380,12062 15393,11993 15405,11917 15427,11755 15445,11577 15459,11382 15470,11170 15478,10942 15483,10698 15485,10437 15483,10176 15478,9934 15470,9710 15459,9498 15445,9307 15427,9131 15405,8969 15393,8897 15380,8827 15367,8761 15352,8702 15336,8646 15319,8593 15302,8546 15283,8500 15263,8461 15242,8428 15221,8394 15198,8368 15174,8345 15149,8325 15123,8312 15096,8302 15038,8292 14982,8302 14956,8312 14930,8325 14905,8345 14883,8368 14860,8394 14838,8428 14818,8461 14798,8500 14779,8546 14761,8593 14745,8646 14730,8702 14715,8761 14701,8827 14688,8897 14677,8969 14655,9131 14637,9307 14622,9498 14612,9710 14604,9934 14599,10176 14597,10437 Z M 16936,10374 L 16240,6835 16907,6835 17326,9141 17749,6835 18418,6835 17714,10374 18449,14068 17781,14068 17326,11590 16872,14068 16205,14068 16936,10374 Z M 18469,6835 L 19113,6835 19520,10903 19535,11048 19548,11200 19558,11349 19567,11504 19575,11663 19581,11825 19587,11990 19591,12162 19603,12162 19609,11990 19617,11825 19626,11663 19636,11504 19685,10903 20085,6835 20718,6835 19805,14994 19772,15268 19737,15522 19697,15760 19654,15982 19608,16183 19557,16368 19504,16537 19447,16685 19387,16818 19325,16930 19261,17026 19193,17105 19124,17168 19053,17211 18980,17237 18904,17247 18855,17244 18811,17241 18770,17231 18732,17214 18663,17178 18632,17161 18603,17141 18603,15578 18708,15631 18739,15641 18771,15651 18803,15654 18837,15658 18882,15651 18924,15635 18965,15605 18985,15585 19003,15565 19021,15539 19039,15509 19055,15479 19071,15446 19087,15410 19102,15370 19117,15327 19130,15281 19157,15182 19182,15083 19204,14974 19225,14865 19245,14749 19262,14627 19277,14501 19291,14372 19327,14015 18469,6835 Z "/>
        <path fill="none" stroke="rgb(128,128,128)" stroke-width="53" stroke-linejoin="miter" d="M 1100,16851 L 1045,16847 993,16837 945,16824 899,16804 857,16781 818,16758 782,16732 749,16705 749,15036 814,15086 847,15109 882,15129 916,15146 953,15159 991,15165 1029,15169 1055,15165 1080,15159 1103,15149 1128,15136 1151,15116 1173,15093 1195,15066 1217,15036 1228,15020 1237,15000 1247,14977 1257,14954 1267,14931 1276,14904 1293,14845 1309,14775 1324,14703 1337,14620 1350,14531 1361,14435 1371,14326 1378,14210 1385,14081 1390,13946 1394,13797 1396,13642 1397,13473 1397,4611 1994,4611 1994,13460 1992,13758 1987,14042 1978,14310 1966,14561 1949,14799 1930,15023 1908,15231 1881,15426 1852,15608 1819,15777 1785,15932 1746,16074 1706,16203 1662,16319 1616,16424 1567,16514 1515,16593 1462,16662 1407,16718 1350,16768 1290,16804 1229,16831 1165,16844 1100,16851 Z "/>
        <path fill="none" stroke="rgb(128,128,128)" stroke-width="53" stroke-linejoin="miter" d="M 4618,10437 L 4614,10876 4600,11286 4578,11673 4547,12036 4528,12205 4507,12370 4484,12528 4458,12680 4430,12822 4401,12961 4369,13093 4335,13219 4298,13338 4261,13450 4221,13553 4181,13649 4139,13738 4094,13817 4049,13890 4002,13956 3952,14012 3902,14062 3797,14138 3684,14184 3566,14200 3492,14194 3420,14174 3350,14138 3282,14091 3216,14029 3152,13956 3091,13867 3031,13764 2973,13649 2919,13520 2869,13381 2821,13226 2776,13060 2735,12882 2696,12690 2662,12485 2630,12271 2603,12043 2580,11801 2560,11554 2546,11293 2536,11018 2529,10734 2527,10437 2531,10000 2545,9591 2566,9204 2597,8847 2616,8675 2636,8513 2660,8355 2685,8206 2712,8064 2742,7925 2773,7796 2808,7671 2843,7552 2882,7443 2920,7340 2962,7248 3004,7159 3047,7079 3094,7007 3141,6944 3189,6888 3241,6838 3346,6762 3458,6719 3578,6703 3653,6709 3726,6729 3797,6765 3865,6812 3931,6874 3995,6947 4057,7036 4116,7139 4172,7254 4226,7380 4277,7522 4324,7674 4368,7839 4410,8014 4447,8203 4483,8404 4514,8616 4542,8841 4564,9078 4584,9326 4599,9587 4609,9858 4616,10143 4618,10437 Z "/>
        <path fill="none" stroke="rgb(128,128,128)" stroke-width="53" stroke-linejoin="miter" d="M 3128,10437 L 3130,10698 3135,10942 3143,11170 3154,11382 3169,11577 3186,11755 3208,11917 3220,11993 3233,12062 3246,12129 3261,12191 3277,12248 3294,12300 3311,12350 3329,12396 3350,12436 3371,12472 3392,12505 3415,12532 3439,12558 3463,12578 3490,12591 3517,12601 3574,12611 3630,12601 3657,12591 3682,12578 3707,12558 3730,12532 3753,12505 3775,12472 3796,12436 3815,12396 3834,12350 3852,12300 3869,12248 3883,12191 3898,12129 3912,12062 3925,11993 3937,11917 3958,11755 3976,11577 3991,11382 4002,11170 4009,10942 4014,10698 4016,10437 4014,10176 4009,9934 4002,9710 3991,9498 3976,9307 3958,9131 3937,8969 3925,8897 3912,8827 3898,8761 3883,8702 3868,8646 3851,8593 3833,8546 3814,8500 3795,8461 3774,8428 3752,8394 3730,8368 3706,8345 3680,8325 3655,8312 3627,8302 3570,8292 3514,8302 3487,8312 3461,8325 3437,8345 3414,8368 3391,8394 3370,8428 3349,8461 3329,8500 3311,8546 3293,8593 3276,8646 3261,8702 3246,8761 3233,8827 3220,8897 3208,8969 3186,9131 3169,9307 3154,9498 3143,9710 3135,9934 3130,10176 3128,10437 Z "/>
        <path fill="none" stroke="rgb(128,128,128)" stroke-width="53" stroke-linejoin="miter" d="M 5399,4000 L 5431,4003 5463,4013 5492,4029 5522,4052 5549,4079 5576,4115 5601,4158 5625,4204 5637,4231 5648,4261 5658,4294 5667,4330 5675,4366 5683,4409 5690,4452 5696,4498 5702,4548 5707,4598 5711,4654 5714,4710 5719,4832 5720,4968 5719,5097 5714,5219 5711,5275 5707,5328 5702,5377 5696,5427 5690,5473 5683,5516 5675,5556 5667,5596 5658,5629 5648,5662 5637,5695 5625,5721 5601,5771 5576,5814 5549,5850 5522,5880 5492,5903 5463,5919 5431,5929 5399,5933 5367,5929 5335,5919 5305,5903 5276,5880 5248,5850 5222,5814 5196,5771 5173,5721 5162,5695 5151,5662 5141,5629 5132,5596 5123,5556 5117,5516 5110,5473 5103,5427 5098,5377 5093,5328 5089,5275 5086,5219 5081,5097 5080,4968 5081,4832 5086,4710 5089,4654 5093,4598 5098,4548 5103,4498 5110,4452 5117,4409 5123,4366 5132,4330 5141,4294 5151,4261 5162,4231 5173,4204 5196,4155 5222,4115 5248,4079 5276,4049 5305,4029 5335,4013 5367,4003 5399,4000 Z "/>
        <path fill="none" stroke="rgb(128,128,128)" stroke-width="53" stroke-linejoin="miter" d="M 5692,6835 L 5692,14068 5104,14068 5104,6835 5692,6835 Z "/>
        <path fill="none" stroke="rgb(128,128,128)" stroke-width="53" stroke-linejoin="miter" d="M 7533,6703 L 7617,6712 7698,6742 7774,6792 7846,6858 7913,6947 7946,7000 7976,7056 8006,7116 8035,7182 8063,7254 8090,7330 8115,7413 8139,7499 8161,7595 8181,7694 8200,7800 8218,7909 8233,8028 8247,8150 8259,8279 8270,8414 8287,8705 8297,9016 8300,9353 8300,14068 7710,14068 7710,9842 7709,9653 7705,9475 7698,9310 7689,9158 7678,9016 7664,8887 7656,8827 7647,8771 7637,8718 7627,8669 7616,8622 7605,8576 7593,8537 7580,8497 7566,8464 7551,8431 7536,8401 7520,8378 7503,8355 7485,8335 7467,8318 7448,8302 7407,8285 7363,8279 7298,8289 7268,8302 7239,8318 7211,8338 7186,8365 7160,8398 7136,8434 7115,8474 7093,8520 7074,8570 7056,8626 7039,8685 7023,8751 7008,8821 6995,8897 6972,9059 6952,9237 6935,9432 6921,9647 6911,9875 6903,10123 6899,10384 6897,10665 6897,14068 6308,14068 6308,6835 6759,6835 6838,7763 6869,7763 6896,7628 6925,7502 6957,7387 6990,7281 7027,7185 7066,7099 7108,7023 7151,6954 7197,6894 7243,6845 7289,6802 7336,6765 7385,6739 7433,6719 7482,6706 7533,6703 Z "/>
        <path fill="none" stroke="rgb(128,128,128)" stroke-width="53" stroke-linejoin="miter" d="M 10879,4611 L 11011,4624 11133,4660 11246,4720 11351,4806 11445,4918 11490,4981 11531,5054 11570,5130 11608,5212 11642,5301 11675,5397 11705,5500 11734,5602 11761,5715 11785,5827 11807,5949 11828,6071 11846,6200 11863,6332 11878,6471 11891,6613 11911,6914 11922,7231 11926,7565 11924,7770 11919,7968 11912,8166 11901,8361 11886,8553 11868,8741 11846,8926 11823,9108 11795,9283 11763,9452 11727,9611 11686,9759 11641,9901 11592,10033 11539,10156 11482,10268 11420,10371 11352,10460 11279,10532 11200,10595 11115,10642 11026,10678 10932,10698 10831,10704 10575,10704 10575,14072 9978,14072 9978,4611 10879,4611 Z "/>
        <path fill="none" stroke="rgb(128,128,128)" stroke-width="53" stroke-linejoin="miter" d="M 10847,6253 L 10575,6253 10575,9062 10772,9062 10833,9055 10892,9042 10947,9016 10999,8979 11047,8930 11092,8874 11135,8804 11173,8725 11191,8682 11208,8632 11223,8583 11238,8530 11251,8474 11263,8411 11275,8348 11285,8282 11292,8213 11300,8140 11306,8061 11312,7981 11319,7813 11321,7631 11319,7466 11313,7307 11304,7162 11291,7030 11275,6904 11254,6792 11230,6689 11203,6597 11171,6518 11136,6448 11097,6389 11055,6339 11009,6303 10958,6276 10904,6260 10847,6253 Z "/>
        <path fill="none" stroke="rgb(128,128,128)" stroke-width="53" stroke-linejoin="miter" d="M 13617,6703 L 13719,6716 13748,6722 13773,6732 13795,6742 13814,6755 13771,8609 13756,8596 13737,8586 13715,8573 13690,8563 13664,8553 13641,8550 13618,8543 13597,8543 13560,8546 13522,8553 13486,8570 13449,8586 13414,8613 13378,8642 13343,8679 13308,8722 13275,8771 13242,8824 13212,8887 13183,8956 13157,9032 13131,9115 13107,9204 13086,9300 13066,9402 13049,9518 13034,9640 13022,9769 13013,9911 13006,10060 13002,10219 13001,10387 13001,14068 12412,14068 12412,6835 12859,6835 12946,8054 12973,8054 12998,7919 13025,7786 13054,7658 13086,7539 13119,7420 13156,7307 13193,7202 13233,7099 13276,7007 13320,6927 13366,6858 13413,6802 13461,6759 13511,6729 13564,6709 13617,6703 Z "/>
        <path fill="none" stroke="rgb(128,128,128)" stroke-width="53" stroke-linejoin="miter" d="M 16086,10437 L 16082,10876 16069,11286 16047,11673 16015,12036 15997,12205 15976,12370 15952,12528 15927,12680 15899,12822 15869,12961 15838,13093 15803,13219 15767,13338 15729,13450 15690,13553 15650,13649 15607,13738 15563,13817 15518,13890 15470,13956 15421,14012 15371,14062 15265,14138 15153,14184 15034,14200 14961,14194 14889,14174 14819,14138 14751,14091 14685,14029 14620,13956 14559,13867 14499,13764 14442,13649 14388,13520 14338,13381 14289,13226 14245,13060 14203,12882 14165,12690 14131,12485 14099,12271 14071,12043 14049,11801 14029,11554 14014,11293 14004,11018 13997,10734 13995,10437 13999,10000 14013,9591 14035,9204 14065,8847 14084,8675 14105,8513 14129,8355 14153,8206 14181,8064 14210,7925 14242,7796 14276,7671 14312,7552 14350,7443 14389,7340 14430,7248 14473,7159 14516,7079 14562,7007 14610,6944 14658,6888 14709,6838 14815,6762 14927,6719 15046,6703 15121,6709 15194,6729 15265,6765 15333,6812 15399,6874 15463,6947 15525,7036 15585,7139 15641,7254 15695,7380 15745,7522 15793,7674 15837,7839 15878,8014 15916,8203 15951,8404 15983,8616 16010,8841 16033,9078 16053,9326 16068,9587 16077,9858 16084,10143 16086,10437 Z "/>
        <path fill="none" stroke="rgb(128,128,128)" stroke-width="53" stroke-linejoin="miter" d="M 14597,10437 L 14599,10698 14604,10942 14612,11170 14622,11382 14637,11577 14655,11755 14677,11917 14688,11993 14701,12062 14715,12129 14730,12191 14746,12248 14762,12300 14779,12350 14798,12396 14819,12436 14839,12472 14861,12505 14884,12532 14907,12558 14932,12578 14959,12591 14985,12601 15042,12611 15099,12601 15125,12591 15151,12578 15175,12558 15199,12532 15222,12505 15243,12472 15264,12436 15284,12396 15303,12350 15320,12300 15337,12248 15352,12191 15367,12129 15380,12062 15393,11993 15405,11917 15427,11755 15445,11577 15459,11382 15470,11170 15478,10942 15483,10698 15485,10437 15483,10176 15478,9934 15470,9710 15459,9498 15445,9307 15427,9131 15405,8969 15393,8897 15380,8827 15367,8761 15352,8702 15336,8646 15319,8593 15302,8546 15283,8500 15263,8461 15242,8428 15221,8394 15198,8368 15174,8345 15149,8325 15123,8312 15096,8302 15038,8292 14982,8302 14956,8312 14930,8325 14905,8345 14883,8368 14860,8394 14838,8428 14818,8461 14798,8500 14779,8546 14761,8593 14745,8646 14730,8702 14715,8761 14701,8827 14688,8897 14677,8969 14655,9131 14637,9307 14622,9498 14612,9710 14604,9934 14599,10176 14597,10437 Z "/>
        <path fill="none" stroke="rgb(128,128,128)" stroke-width="53" stroke-linejoin="miter" d="M 16936,10374 L 16240,6835 16907,6835 17326,9141 17749,6835 18418,6835 17714,10374 18449,14068 17781,14068 17326,11590 16872,14068 16205,14068 16936,10374 Z "/>
        <path fill="none" stroke="rgb(128,128,128)" stroke-width="53" stroke-linejoin="miter" d="M 18469,6835 L 19113,6835 19520,10903 19535,11048 19548,11200 19558,11349 19567,11504 19575,11663 19581,11825 19587,11990 19591,12162 19603,12162 19609,11990 19617,11825 19626,11663 19636,11504 19685,10903 20085,6835 20718,6835 19805,14994 19772,15268 19737,15522 19697,15760 19654,15982 19608,16183 19557,16368 19504,16537 19447,16685 19387,16818 19325,16930 19261,17026 19193,17105 19124,17168 19053,17211 18980,17237 18904,17247 18855,17244 18811,17241 18770,17231 18732,17214 18663,17178 18632,17161 18603,17141 18603,15578 18708,15631 18739,15641 18771,15651 18803,15654 18837,15658 18882,15651 18924,15635 18965,15605 18985,15585 19003,15565 19021,15539 19039,15509 19055,15479 19071,15446 19087,15410 19102,15370 19117,15327 19130,15281 19157,15182 19182,15083 19204,14974 19225,14865 19245,14749 19262,14627 19277,14501 19291,14372 19327,14015 18469,6835 Z "/>
       </g>
      </g>
     </g>
    </g>
   </g>
  </g>
 </g>
</svg>